<svg xmlns="http://www.w3.org/2000/svg" width="96" height="96" viewBox="0 0 96 96" role="img" aria-labelledby="bloodroot-title">
  <title id="bloodroot-title">Bloodroot crimson cutting</title>
  <defs>
    <radialGradient id="bloodroot-halo" cx="50%" cy="43%" r="52%">
      <stop offset="0" stop-color="#ff8a5a" stop-opacity=".82"/>
      <stop offset=".42" stop-color="#e32a35" stop-opacity=".24"/>
      <stop offset="1" stop-color="#050202" stop-opacity="0"/>
    </radialGradient>
    <filter id="bloodroot-shadow" x="-30%" y="-30%" width="160%" height="160%">
      <feDropShadow dx="0" dy="4" stdDeviation="3" flood-color="#000000" flood-opacity=".86"/>
      <feDropShadow dx="0" dy="0" stdDeviation="3.4" flood-color="#e32a35" flood-opacity=".48"/>
    </filter>
    <linearGradient id="bloodroot-metal" x1="14" y1="8" x2="84" y2="88" gradientUnits="userSpaceOnUse">
      <stop offset="0" stop-color="#fff3b0"/>
      <stop offset=".28" stop-color="#ff8a5a"/>
      <stop offset=".62" stop-color="#e32a35"/>
      <stop offset="1" stop-color="#210806"/>
    </linearGradient>
  </defs>
  <rect width="96" height="96" fill="none"/>
  <circle cx="48" cy="48" r="42" fill="url(#bloodroot-halo)"/>
  <g filter="url(#bloodroot-shadow)" stroke-linecap="round" stroke-linejoin="round">
    <path d="M50 10C30 29 25 55 45 80c23-16 28-46 5-70Z" fill="#b50e1d" stroke="#2c0206" stroke-width="3"/>
    <path d="M52 16C42 35 40 55 47 76" stroke="#ffb071" stroke-width="4"/>
    <path d="M47 29c-9 5-15 13-18 25M50 43c8-5 15-8 24-9M48 58c-7 3-12 8-16 16" stroke="#5b050a" stroke-width="3"/>
    <path d="M44 78c-6 6-9 9-18 11M49 79c2 7 5 10 11 13M53 75c8 1 13 5 18 11" stroke="#89121a" stroke-width="3"/>
    <path d="M34 38c-4 9-3 20 6 31M61 25c7 13 8 26 2 39" fill="none" stroke="#ff3947" stroke-opacity=".74" stroke-width="2"/>
  </g>
</svg>
