<svg xmlns="http://www.w3.org/2000/svg" width="96" height="96" viewBox="0 0 96 96" role="img" aria-labelledby="bone-star-title">
  <title id="bone-star-title">Bone Star thorn flower</title>
  <defs>
    <radialGradient id="bone-star-halo" cx="50%" cy="43%" r="52%">
      <stop offset="0" stop-color="#fff0c8" stop-opacity=".82"/>
      <stop offset=".42" stop-color="#d8c9a9" stop-opacity=".24"/>
      <stop offset="1" stop-color="#050202" stop-opacity="0"/>
    </radialGradient>
    <filter id="bone-star-shadow" x="-30%" y="-30%" width="160%" height="160%">
      <feDropShadow dx="0" dy="4" stdDeviation="3" flood-color="#000000" flood-opacity=".86"/>
      <feDropShadow dx="0" dy="0" stdDeviation="3.4" flood-color="#d8c9a9" flood-opacity=".48"/>
    </filter>
    <linearGradient id="bone-star-metal" x1="14" y1="8" x2="84" y2="88" gradientUnits="userSpaceOnUse">
      <stop offset="0" stop-color="#fff3b0"/>
      <stop offset=".28" stop-color="#fff0c8"/>
      <stop offset=".62" stop-color="#d8c9a9"/>
      <stop offset="1" stop-color="#210806"/>
    </linearGradient>
  </defs>
  <rect width="96" height="96" fill="none"/>
  <circle cx="48" cy="48" r="42" fill="url(#bone-star-halo)"/>
  <g filter="url(#bone-star-shadow)" stroke-linecap="round" stroke-linejoin="round">
    <path d="M48 8 56 37 84 22 63 48 86 73 56 60 48 89 40 60 10 73 33 48 12 22 40 37Z" fill="#e9ddc1" stroke="#4a3722" stroke-width="3"/>
    <path d="M48 15 53 40 78 28 58 48 79 68 53 56 48 82 43 56 17 68 38 48 18 28 43 40Z" fill="none" stroke="#fff6d8" stroke-width="2"/>
    <path d="M39 38c8 5 11 14 9 24M57 37c-7 7-9 15-6 24M32 51h32" stroke="#6f5a3c" stroke-width="2"/>
    <circle cx="48" cy="48" r="5" fill="#24160c" stroke="#f3e6c3" stroke-width="2"/>
  </g>
</svg>
