<svg xmlns="http://www.w3.org/2000/svg" width="1280" height="720" viewBox="0 0 1280 720" role="img" aria-label="Bloodroot Compact greenhouse restored with crimson glass, root beds, and a sealed conservatory sigil">
  <defs>
    <radialGradient id="bloodSky" cx="50%" cy="14%" r="76%">
      <stop offset="0" stop-color="#fff1bd"/>
      <stop offset=".12" stop-color="#b51d2f"/>
      <stop offset=".4" stop-color="#2b090d"/>
      <stop offset="1" stop-color="#050303"/>
    </radialGradient>
    <linearGradient id="glassRed" x1="0" x2="0" y1="0" y2="1">
      <stop offset="0" stop-color="#c23a42" stop-opacity=".76"/>
      <stop offset=".42" stop-color="#371018" stop-opacity=".86"/>
      <stop offset="1" stop-color="#080303" stop-opacity=".98"/>
    </linearGradient>
    <linearGradient id="goldRib" x1="0" x2="1">
      <stop offset="0" stop-color="#5a2c18"/>
      <stop offset=".44" stop-color="#d7b16d"/>
      <stop offset=".7" stop-color="#fff1bd"/>
      <stop offset="1" stop-color="#4f1d14"/>
    </linearGradient>
    <radialGradient id="redBloom" cx="50%" cy="42%" r="68%">
      <stop offset="0" stop-color="#fff1bd"/>
      <stop offset=".22" stop-color="#b51d2f"/>
      <stop offset="1" stop-color="#b51d2f" stop-opacity="0"/>
    </radialGradient>
    <filter id="emberGlow" x="-35%" y="-35%" width="170%" height="170%">
      <feGaussianBlur stdDeviation="9" result="blur"/>
      <feMerge>
        <feMergeNode in="blur"/>
        <feMergeNode in="SourceGraphic"/>
      </feMerge>
    </filter>
  </defs>

  <rect width="1280" height="720" fill="url(#bloodSky)"/>
  <g filter="url(#emberGlow)" opacity=".9">
    <circle cx="640" cy="115" r="92" fill="#b51d2f"/>
    <circle cx="640" cy="115" r="48" fill="#d7b16d"/>
    <circle cx="640" cy="115" r="18" fill="#fff1bd"/>
  </g>
  <path d="M0 600 C166 550 294 590 444 548 C590 508 706 508 852 548 C1002 590 1114 552 1280 600 L1280 720 L0 720 Z" fill="#080504"/>
  <path d="M0 630 C190 592 310 626 456 594 C584 566 696 566 824 594 C970 626 1090 592 1280 630 L1280 720 L0 720 Z" fill="#140807"/>

  <g id="greenhouse" transform="translate(0 12)">
    <path d="M226 628 L300 286 L640 96 L980 286 L1054 628 Z" fill="#080303" stroke="#6e2819" stroke-width="12"/>
    <path d="M313 289 L640 116 L967 289 L906 628 L374 628 Z" fill="url(#glassRed)" stroke="url(#goldRib)" stroke-width="8"/>
    <path d="M640 116 L640 628" stroke="#d7b16d" stroke-width="9" opacity=".95"/>
    <path d="M420 236 L374 628 M530 178 L512 628 M750 178 L768 628 M860 236 L906 628" stroke="#8b4a25" stroke-width="6" opacity=".95"/>
    <path d="M313 289 L967 289 M282 414 L998 414 M254 526 L1026 526" stroke="#6e2819" stroke-width="7" opacity=".95"/>
    <path d="M322 292 L640 116 L958 292" fill="none" stroke="#fff1bd" stroke-width="3" opacity=".5"/>
    <path d="M398 628 L468 404 L812 404 L882 628 Z" fill="#0c0505" stroke="#9d6d3c" stroke-width="7"/>
    <path d="M470 628 L510 446 L770 446 L810 628 Z" fill="#1a0608" stroke="#d7b16d" stroke-width="5"/>
  </g>

  <g id="compact-seal" transform="translate(640 467)" filter="url(#emberGlow)">
    <circle r="100" fill="#140606" stroke="#d7b16d" stroke-width="5"/>
    <circle r="76" fill="none" stroke="#b51d2f" stroke-width="8" stroke-dasharray="20 14"/>
    <circle r="48" fill="none" stroke="#fff1bd" stroke-width="3"/>
    <path d="M0 -70 L21 -20 L74 -20 L31 12 L48 64 L0 32 L-48 64 L-31 12 L-74 -20 L-21 -20 Z" fill="#b51d2f" stroke="#d7b16d" stroke-width="4"/>
    <path d="M-36 4 C-18 -18 18 -18 36 4 C18 34 -18 34 -36 4 Z" fill="#080303" stroke="#fff1bd" stroke-width="3"/>
    <text x="0" y="9" text-anchor="middle" font-family="Georgia,serif" font-size="25" font-weight="900" fill="#fff1bd">III</text>
  </g>

  <g id="roots" fill="none" stroke-linecap="round">
    <path d="M640 544 C560 590 462 590 344 668" stroke="#8d111d" stroke-width="13"/>
    <path d="M640 544 C724 592 830 590 948 668" stroke="#8d111d" stroke-width="13"/>
    <path d="M560 586 C520 624 506 646 482 704" stroke="#d7b16d" stroke-width="5"/>
    <path d="M724 586 C770 622 802 650 836 704" stroke="#d7b16d" stroke-width="5"/>
    <path d="M474 590 C410 610 358 620 288 654" stroke="#5f0b12" stroke-width="8"/>
    <path d="M808 590 C874 610 924 620 994 654" stroke="#5f0b12" stroke-width="8"/>
  </g>

  <g id="bloodroot-beds">
    <path d="M140 650 C256 594 390 596 512 650 C392 692 258 694 140 650 Z" fill="#160706" stroke="#743018" stroke-width="6"/>
    <path d="M768 650 C890 596 1024 594 1140 650 C1022 694 888 692 768 650 Z" fill="#160706" stroke="#743018" stroke-width="6"/>
    <g fill="#b51d2f" stroke="#fff1bd" stroke-width="2" filter="url(#emberGlow)">
      <path d="M244 626 c-24 -26 14 -48 34 -18 c24 -36 62 0 26 24 c34 18 0 48 -26 22 c-14 32 -54 10 -34 -28z"/>
      <path d="M360 642 c-20 -22 16 -42 32 -16 c22 -32 54 2 22 22 c30 16 -2 44 -24 18 c-12 28 -48 8 -30 -24z"/>
      <path d="M902 626 c-24 -26 14 -48 34 -18 c24 -36 62 0 26 24 c34 18 0 48 -26 22 c-14 32 -54 10 -34 -28z"/>
      <path d="M1020 642 c-20 -22 16 -42 32 -16 c22 -32 54 2 22 22 c30 16 -2 44 -24 18 c-12 28 -48 8 -30 -24z"/>
    </g>
    <g fill="#d7b16d">
      <circle cx="306" cy="664" r="6"/>
      <circle cx="434" cy="646" r="5"/>
      <circle cx="854" cy="662" r="6"/>
      <circle cx="1092" cy="646" r="5"/>
    </g>
  </g>

  <g opacity=".42" stroke="#d7b16d" stroke-width="3">
    <path d="M328 306 C438 266 528 256 640 226 C752 256 842 266 952 306" fill="none"/>
    <path d="M356 628 C480 574 560 592 640 562 C720 592 800 574 924 628" fill="none"/>
  </g>
  <g opacity=".76" fill="#d7b16d">
    <circle cx="230" cy="146" r="2"/>
    <circle cx="1034" cy="176" r="2.3"/>
    <circle cx="1110" cy="92" r="1.8"/>
    <circle cx="174" cy="240" r="1.5"/>
  </g>
  <rect width="1280" height="720" fill="none" stroke="#1f0908" stroke-width="18"/>
</svg>
